<svg viewBox="0 0 126 24" xmlns="http://www.w3.org/2000/svg"><g fill="#fff"><path d="m3.4 1.29a2.06 2.06 0 0 0 -2.06 2.05v19.38h5.48v-8.42h7.77a2.06 2.06 0 0 0 2.06-2.06v-2.32h-9.83v-3.22a1 1 0 0 1 1-1h9.31a2.06 2.06 0 0 0 2.06-2.06v-2.35z"/><path d="m28.09 18.31a1 1 0 0 1 -1-1v-13.95a2.07 2.07 0 0 0 -2.09-2.07h-3.45v19.36a2.07 2.07 0 0 0 2.07 2.07h11.26a2.07 2.07 0 0 0 2.07-2.07v-2.34z"/><path d="m44.85 22.72h-5.49v-11.19a2.07 2.07 0 0 1 2.06-2.06h3.43z"/><path d="m42.79 7.47h-3.43v-4.12a2.07 2.07 0 0 1 2.06-2.06h1.37a2.07 2.07 0 0 1 2.06 2.06v2.06a2.07 2.07 0 0 1 -2.06 2.06"/><path d="m80 19.24h-3.79a2 2 0 0 1 -2-2v-3.6h5.79a2.79 2.79 0 0 1 0 5.58m-5.77-14.45h5.15a2.49 2.49 0 0 1 0 5h-3.38a1.78 1.78 0 0 1 -1.77-1.77zm11.64 7.39c-.12-.11-.45-.37-.54-.44a5.7 5.7 0 0 0 1.46-4.2c0-3.91-2.53-6.22-6.44-6.22h-8.45a2.06 2.06 0 0 0 -2.05 2.05v17.31a2.06 2.06 0 0 0 2.05 2.05h9.41c3.91 0 6.27-2.28 6.27-6.19a5.92 5.92 0 0 0 -1.72-4.36"/><path d="m106.82 1.28h-2.42a2 2 0 0 0 -2 2v12.72c0 1.83-1.26 3-3.43 3h-1c-2.17 0-3.43-1.22-3.43-3v-14.72h-2.44a2 2 0 0 0 -2 2v13.44c0 3.77 2.59 6.28 7.07 6.28h2.59c4.48 0 7.07-2.51 7.07-6.28z"/><path d="m115.44 5.64h6.93a2.06 2.06 0 0 0 2.05-2.05v-2.33h-9a6.55 6.55 0 0 0 -6.42 6.55 6.37 6.37 0 0 0 6.39 6.34h2.83a2.08 2.08 0 0 1 0 4.15h-9v2.33a2.06 2.06 0 0 0 2.05 2.05h7a6.55 6.55 0 0 0 6.44-6.55 6.36 6.36 0 0 0 -6.34-6.34h-2.88a2.08 2.08 0 0 1 0-4.15"/><path d="m65.67 18.9-3.67-5.12-3.21 4.41 2.73 3.76a2.56 2.56 0 0 0 3.57.57h.06a2.56 2.56 0 0 0 .57-3.57"/><path d="m60.66 12-3.2-4.41-4-5.53a2.56 2.56 0 0 0 -3.57-.57h-.06a2.56 2.56 0 0 0 -.57 3.57l5 6.89-5 6.9a2.57 2.57 0 0 0 .56 3.58h.06a2.56 2.56 0 0 0 3.57-.57l3-4.06z"/><path d="m65.11 1.53h-.06a2.56 2.56 0 0 0 -3.57.57l-2.73 3.71 3.25 4.41 3.67-5.12a2.56 2.56 0 0 0 -.57-3.57"/></g></svg>